<svg width="12" height="12" viewBox="0 0 12 12" fill="none" xmlns="http://www.w3.org/2000/svg">
<g clip-path="url(#clip0_413_48036)">
<path d="M2.5 8L5 6.5M7 5.5L9.5 4M6 2.5V5M6 2.5C6.41421 2.5 6.75 2.16421 6.75 1.75M6 2.5C5.58579 2.5 5.25 2.16421 5.25 1.75M6 7V9.5M6 9.5C5.58579 9.5 5.25 9.83579 5.25 10.25M6 9.5C6.41421 9.5 6.75 9.83579 6.75 10.25M2.5 4L5 5.5M7 6.5L9.5 8M10.25 4.5V7.25M10.25 4.5C10.6642 4.5 11 4.16421 11 3.75C11 3.33579 10.6642 3 10.25 3C9.83579 3 9.5 3.33579 9.5 3.75C9.5 4.16421 9.83579 4.5 10.25 4.5ZM6.75 10.25L9.5 8.75M6.75 10.25C6.75 10.6642 6.41421 11 6 11C5.58579 11 5.25 10.6642 5.25 10.25M2.25 8.75L5.25 10.25M1.75 7.5V4.5M1.75 7.5C1.33579 7.5 1 7.83579 1 8.25C1 8.66421 1.33579 9 1.75 9C2.16421 9 2.5 8.66421 2.5 8.25C2.5 7.83579 2.16421 7.5 1.75 7.5ZM1.75 4.5C2.16421 4.5 2.5 4.16421 2.5 3.75C2.5 3.33579 2.16421 3 1.75 3C1.33579 3 1 3.33579 1 3.75C1 4.16421 1.33579 4.5 1.75 4.5ZM2.25 3.25L5.25 1.75M5.25 1.75C5.25 1.33579 5.58579 1 6 1C6.41421 1 6.75 1.33579 6.75 1.75M9.75 3.25L6.75 1.75M11 8.25C11 8.66421 10.6642 9 10.25 9C9.83579 9 9.5 8.66421 9.5 8.25C9.5 7.83579 9.83579 7.5 10.25 7.5C10.6642 7.5 11 7.83579 11 8.25ZM6 4.875L7 5.4375V6.5625L6 7.125L5 6.5625V5.4375L6 4.875Z" stroke="#070D17" stroke-width="0.75" stroke-linecap="round" stroke-linejoin="round"/>
</g>
<defs>
<clipPath id="clip0_413_48036">
<rect width="12" height="12" fill="white"/>
</clipPath>
</defs>
</svg>
